<svg
   id="full"
   fill="none"
   viewBox="0 0 207 407">
  <g
     id="wheel">
    <path
       fill="#DCDCDC"
       d="M184.984 322.168C184.984 337.836 180.581 352.475 172.945 364.916C169.01 371.327 164.217 377.153 158.725 382.237C154.014 386.597 148.79 390.41 143.152 393.574C131.325 400.214 117.681 404 103.152 404C81.6988 404 62.1734 395.744 47.5799 382.237C40.8907 376.045 35.2377 368.75 30.9102 360.641C24.7897 349.173 21.3203 336.075 21.3203 322.168C21.3203 306.628 25.6518 292.1 33.1734 279.725C36.9974 273.434 41.646 267.699 46.9692 262.67C51.8376 258.071 57.2702 254.064 63.1524 250.762C74.9795 244.122 88.6238 240.336 103.152 240.336C117.681 240.336 131.325 244.122 143.152 250.762C149.035 254.064 154.467 258.071 159.336 262.67C165.842 268.816 171.34 276.017 175.557 284C181.576 295.396 184.984 308.384 184.984 322.168Z"
       id="path3759" />
    <path
       stroke="#406270"
       stroke-width="6"
       d="M184.984 322.168H21.3203M184.984 322.168C184.984 308.384 181.576 295.396 175.557 284M184.984 322.168C184.984 337.836 180.581 352.475 172.945 364.916M103.152 404V240.336M103.152 404C81.6988 404 62.1734 395.744 47.5799 382.237C40.8907 376.045 35.2377 368.75 30.9102 360.641M103.152 404C117.681 404 131.325 400.214 143.152 393.574M21.3203 322.168C21.3203 336.075 24.7897 349.173 30.9102 360.641M21.3203 322.168C21.3203 306.628 25.6518 292.1 33.1734 279.725M103.152 240.336C117.681 240.336 131.325 244.122 143.152 250.762M103.152 240.336C88.6238 240.336 74.9795 244.122 63.1524 250.762M143.152 250.762C149.034 254.064 154.467 258.071 159.336 262.67C165.842 268.816 171.34 276.017 175.557 284M143.152 250.762L62.847 394.84M30.9102 360.641L175.557 284M172.945 364.916C169.01 371.327 164.217 377.153 158.725 382.237C154.014 386.597 148.79 390.41 143.152 393.574M172.945 364.916L33.1734 279.725M33.1734 279.725C36.9974 273.434 41.646 267.699 46.9692 262.67C51.8376 258.071 57.2702 254.064 63.1524 250.762M143.152 393.574L63.1524 250.762"
       id="path3761" />
    <circle
       fill="#DCDCDC"
       stroke="#406270"
       stroke-width="6"
       cx="103.152"
       cy="322.168"
       r="56.1832"
       id="circle3763" />
  </g>
  <g
     id="body">
    <path
       fill="#DCDCDC"
       d="M203.305 82.494V322.168H181.015H161.511H44.4885H24.9847H3V82.494H39.5246C37.106 62.2067 37.9851 50.1368 51.0905 25.0184L45.1772 21.6358V9.9268L55.033 4L65.4686 9.9268V21.6358L55.033 27.2735L51.0905 25.0184C37.9851 50.1368 37.106 62.2067 39.5246 82.494H165.331C167.534 58.8897 167.22 45.6325 155.331 24.7553L150.838 27.4181L141.127 21.4913V9.9268L150.838 4.28911L160.403 9.9268L160.838 21.4913L155.331 24.7553C167.22 45.6325 167.534 58.8897 165.331 82.494H203.305Z"
       id="path3765" />
    <path
       stroke="#406270"
       stroke-width="6"
       d="M39.5246 82.494H3V322.168H24.9847H44.4885H161.511H181.015H203.305V82.494H165.331M39.5246 82.494C37.106 62.2067 37.9851 50.1368 51.0905 25.0184L45.1772 21.6358M39.5246 82.494H165.331M45.1772 21.6358V9.9268L55.033 4L65.4686 9.9268V21.6358L55.033 27.2735L45.1772 21.6358ZM165.331 82.494C167.534 58.8897 167.22 45.6325 155.331 24.7553L150.838 27.4181M150.838 27.4181L141.127 21.4913V9.9268L150.838 4.28911L160.403 9.9268L160.838 21.4913L150.838 27.4181Z"
       id="path3767" />
    <rect
       fill="#416271"
       x="54.9082"
       y="142.626"
       width="31.145"
       height="65.9542"
       rx="15.5725"
       id="rect3769" />
    <rect
       fill="#416271"
       x="117.809"
       y="142.626"
       width="31.7557"
       height="65.9542"
       rx="15.8779"
       id="rect3771" />
    <path
       stroke="#406270"
       stroke-width="6"
       d="M18.2676 102.418L22.4838 97.4351L29.2599 99.5115V106.017L22.4838 107.817L18.2676 102.418Z"
       id="path3773" />
    <path
       stroke="#406270"
       stroke-width="6"
       d="M186.207 102.418L181.991 97.4351L175.215 99.5115V106.017L181.991 107.817L186.207 102.418Z"
       id="path3775" />
    <rect
       fill="#416271"
       x="37.1992"
       y="101.099"
       width="20.7634"
       height="3.66412"
       rx="1.83206"
       id="rect3777" />
    <rect
       fill="#416271"
       x="145.291"
       y="101.099"
       width="21.374"
       height="3.66412"
       rx="1.83206"
       id="rect3779" />
    <rect
       fill="#416271"
       x="178.268"
       y="137.74"
       width="21.374"
       height="4.8855"
       rx="2.44275"
       transform="rotate(-90 178.268 137.74)"
       id="rect3781" />
    <rect
       fill="#416271"
       x="21.9316"
       y="137.74"
       width="21.374"
       height="4.27481"
       rx="2.1374"
       transform="rotate(-90 21.9316 137.74)"
       id="rect3783" />
    <path
       stroke="#406270"
       stroke-width="6"
       d="M183.152 304.971L178.936 309.954L172.16 307.878V301.372L178.936 299.573L183.152 304.971Z"
       id="path3785" />
    <rect
       fill="#416271"
       x="164.221"
       y="306.29"
       width="20.7634"
       height="3.66412"
       rx="1.83206"
       transform="rotate(-180 164.221 306.29)"
       id="rect3787" />
    <rect
       fill="#416271"
       x="179.488"
       y="269.649"
       width="21.374"
       height="4.27481"
       rx="2.1374"
       transform="rotate(90 179.488 269.649)"
       id="rect3789" />
    <path
       stroke="#406270"
       stroke-width="6"
       d="M21.3203 305.582L25.5366 310.565L32.3127 308.489V301.983L25.5366 300.183L21.3203 305.582Z"
       id="path3791" />
    <rect
       fill="#416271"
       width="20.7634"
       height="3.66412"
       rx="1.83206"
       transform="matrix(1 0 0 -1 40.252 306.901)"
       id="rect3793" />
    <rect
       fill="#416271"
       width="21.374"
       height="4.27481"
       rx="2.1374"
       transform="matrix(0 1 1 0 24.9844 270.26)"
       id="rect3795" />
  </g>
</svg>
